<?xml version="1.0" encoding="UTF-8" standalone="no"?>
<!-- Created with Inkscape (http://www.inkscape.org/) -->

<svg
   xmlns:dc="http://purl.org/dc/elements/1.1/"
   xmlns:cc="http://creativecommons.org/ns#"
   xmlns:rdf="http://www.w3.org/1999/02/22-rdf-syntax-ns#"
   xmlns:svg="http://www.w3.org/2000/svg"
   xmlns="http://www.w3.org/2000/svg"
   xmlns:sodipodi="http://sodipodi.sourceforge.net/DTD/sodipodi-0.dtd"
   xmlns:inkscape="http://www.inkscape.org/namespaces/inkscape"
   width="210mm"
   height="297mm"
   viewBox="0 0 210 297"
   version="1.1"
   id="svg8"
   inkscape:version="0.92.0 r15299"
   sodipodi:docname="logo_fishblock.svg">
  <defs
     id="defs2" />
  <sodipodi:namedview
     id="base"
     pagecolor="#ffffff"
     bordercolor="#666666"
     borderopacity="1.0"
     inkscape:pageopacity="0.0"
     inkscape:pageshadow="2"
     inkscape:zoom="0.49497475"
     inkscape:cx="217.87914"
     inkscape:cy="568.22211"
     inkscape:document-units="mm"
     inkscape:current-layer="layer1"
     showgrid="false"
     inkscape:window-width="1366"
     inkscape:window-height="705"
     inkscape:window-x="1912"
     inkscape:window-y="176"
     inkscape:window-maximized="1" />
  <metadata
     id="metadata5">
    <rdf:RDF>
      <cc:Work
         rdf:about="">
        <dc:format>image/svg+xml</dc:format>
        <dc:type
           rdf:resource="http://purl.org/dc/dcmitype/StillImage" />
        <dc:title></dc:title>
      </cc:Work>
    </rdf:RDF>
  </metadata>
  <g
     inkscape:label="Calque 1"
     inkscape:groupmode="layer"
     id="layer1">
    <path
       style="fill:#000000;stroke-width:0.05785993"
       d="M 14.516125,93.412832 V 53.518402 H 56.994688 99.47325 l -0.0382,2.03956 c -0.021,1.12176 -0.0383,19.07425 -0.0383,39.89443 l -8e-5,37.854848 H 56.956383 14.516125 Z m 20.018128,24.331808 c 1.090119,-0.27104 1.842725,-0.81587 2.216192,-1.60435 0.177796,-0.37537 0.186394,-0.4256 0.186212,-1.08786 -1.73e-4,-0.59526 -0.01856,-0.73419 -0.128966,-0.97375 -0.355096,-0.77053 -0.968799,-1.19111 -2.50347,-1.71564 -1.033623,-0.35327 -1.357079,-0.58797 -1.357079,-0.98471 0,-0.47411 0.479722,-0.72734 1.357079,-0.71637 0.638721,0.008 1.17216,0.12255 1.713712,0.36811 0.211888,0.0961 0.394668,0.17468 0.406178,0.17468 0.01151,0 0.02093,-0.46586 0.02093,-1.03524 v -1.03525 l -0.390554,-0.0917 c -0.786161,-0.18465 -1.159387,-0.22795 -1.952773,-0.22657 -1.846887,0.003 -3.075976,0.59649 -3.603178,1.73924 -0.201945,0.43773 -0.249332,1.27024 -0.101564,1.78435 0.264388,0.91984 0.874404,1.39536 2.50768,1.9548 1.205558,0.41294 1.457432,0.58895 1.457432,1.01845 0,0.51586 -0.435431,0.72447 -1.504358,0.7207 -0.952175,-0.003 -1.340495,-0.11323 -2.502442,-0.70813 -0.02387,-0.0122 -0.0434,0.47104 -0.0434,1.07391 v 1.09612 l 0.455694,0.12975 c 0.796401,0.22677 1.353123,0.28942 2.350512,0.26453 0.685351,-0.0171 1.053111,-0.0548 1.416161,-0.14504 z m 20.501001,0.0591 c 0.71561,-0.18302 1.056803,-0.37961 1.608837,-0.92701 0.41643,-0.41293 0.541771,-0.58336 0.767217,-1.04323 0.326933,-0.66689 0.486692,-1.27232 0.553455,-2.09742 0.09758,-1.20591 -0.106028,-2.44467 -0.534524,-3.25213 -0.249339,-0.46986 -0.827357,-1.07188 -1.239301,-1.29076 -0.842476,-0.44764 -2.028344,-0.52237 -2.930822,-0.18471 -0.472377,0.17673 -0.987887,0.54346 -1.312837,0.93393 l -0.28508,0.34255 v -2.72242 -2.72242 h -1.359708 -1.359708 v 6.42245 6.42245 h 1.359708 1.359708 v -0.46288 -0.46288 l 0.338828,0.33883 c 0.736012,0.73601 1.877529,1.00149 3.034227,0.70565 z m -2.280366,-2.04664 c -0.445433,-0.16647 -0.729245,-0.44395 -0.957702,-0.93632 -0.149117,-0.32138 -0.162614,-0.41136 -0.182872,-1.21919 -0.02617,-1.04379 0.05455,-1.45215 0.382319,-1.934 0.513146,-0.75439 1.472738,-1.01115 2.269659,-0.60733 0.650113,0.32944 0.951716,1.02349 0.942783,2.16954 -0.0096,1.23041 -0.344443,2.00251 -1.04704,2.41426 -0.212541,0.12455 -0.349331,0.15684 -0.729778,0.17224 -0.296333,0.012 -0.544991,-0.01 -0.677369,-0.0592 z m 17.538208,1.98937 c 1.564304,-0.40264 2.649719,-1.47532 3.07735,-3.04124 0.105305,-0.38562 0.126904,-0.62222 0.129404,-1.41757 0.0026,-0.82787 -0.01457,-1.01574 -0.12934,-1.41429 -0.433759,-1.50636 -1.464062,-2.50234 -3.006603,-2.90643 -0.471221,-0.12345 -0.698913,-0.14819 -1.401589,-0.1523 -1.12028,-0.007 -1.843505,0.15153 -2.690487,0.58805 -0.618641,0.31884 -1.332368,1.05258 -1.640314,1.6863 -0.421935,0.86831 -0.584244,1.86906 -0.470615,2.9017 0.233011,2.11756 1.459223,3.44594 3.548261,3.84391 0.621855,0.11847 1.958387,0.0729 2.583933,-0.0881 z m -2.170957,-2.0172 c -0.15978,-0.0553 -0.372164,-0.1586 -0.471964,-0.22966 -0.236998,-0.16876 -0.518949,-0.5992 -0.632314,-0.96534 -0.118507,-0.38274 -0.169023,-1.4718 -0.08824,-1.90238 0.143244,-0.76353 0.554422,-1.34671 1.13587,-1.61101 0.408601,-0.18574 1.203311,-0.18466 1.620078,0.002 0.762262,0.34175 1.080208,1.00823 1.080336,2.26459 5.8e-5,0.68509 -0.103178,1.29691 -0.274903,1.62899 -0.17568,0.33973 -0.542247,0.67604 -0.870863,0.799 -0.400697,0.14992 -1.085812,0.15615 -1.497998,0.0136 z m 12.775612,2.02055 c 0.247634,-0.0654 0.566587,-0.17033 0.708784,-0.23323 l 0.258547,-0.11436 v -1.07367 c 0,-0.59051 -0.01108,-1.07366 -0.02463,-1.07366 -0.01355,0 -0.237162,0.10278 -0.49693,0.2284 -0.60043,0.29036 -0.988497,0.36974 -1.644865,0.33645 -0.6556,-0.0333 -1.08212,-0.1903 -1.47419,-0.5428 -0.962732,-0.86558 -0.996765,-2.79625 -0.06571,-3.72732 0.363707,-0.3637 0.798154,-0.56413 1.394563,-0.64336 0.679287,-0.0902 1.198916,0.003 1.831539,0.32846 l 0.480214,0.2471 v -1.14694 -1.14696 l -0.309238,-0.1157 c -0.509897,-0.19078 -1.005253,-0.25826 -1.889439,-0.25742 -1.692623,0.002 -2.857077,0.45754 -3.801756,1.48849 -0.420463,0.45885 -0.706979,0.98336 -0.920263,1.68467 -0.143105,0.47055 -0.158148,0.60702 -0.16243,1.47327 -0.0036,0.74039 0.01808,1.03912 0.09683,1.33078 0.359379,1.33096 1.384767,2.43499 2.65628,2.86001 0.669844,0.22391 0.97623,0.26056 1.986684,0.23764 0.696147,-0.0158 1.037428,-0.0505 1.375996,-0.13985 z m -58.223376,-3.39171 v -3.32694 h 0.983619 0.983619 v -1.01254 -1.01255 h -0.989569 -0.989568 l 0.02095,-0.70879 c 0.0177,-0.59879 0.04193,-0.75156 0.156156,-0.98443 0.253579,-0.51697 0.829097,-0.7075 1.628454,-0.53911 0.238672,0.0503 0.454078,0.0914 0.478679,0.0915 0.0246,3e-5 0.03762,-0.46211 0.02893,-1.02696 l -0.0158,-1.02702 -0.289299,-0.0768 c -0.166898,-0.0443 -0.607544,-0.0777 -1.041479,-0.079 -1.248644,-0.004 -2.062333,0.28911 -2.748347,0.9887 -0.640399,0.65307 -0.849935,1.23906 -0.907327,2.53741 l -0.03645,0.82451 h -0.715608 -0.715608 l 0.01583,0.99808 0.01583,0.99808 0.708784,0.0162 0.708785,0.0163 v 3.32516 3.32517 h 1.359708 1.359708 z m 5.959573,-1.01255 v -4.33948 H 27.27424 25.914531 v 4.33948 4.3395 h 1.359709 1.359708 z m 12.555604,1.76758 c 0,-1.68213 0.02248,-2.678 0.06499,-2.87853 0.18278,-0.86235 0.731398,-1.34586 1.526159,-1.34506 0.701323,7e-4 1.14687,0.36994 1.298275,1.07592 0.0384,0.17904 0.06143,1.30506 0.06143,3.00302 v 2.71657 h 1.363305 1.363306 l -0.02279,-3.1389 c -0.02008,-2.76597 -0.03499,-3.18702 -0.125459,-3.54392 -0.375938,-1.48301 -1.270979,-2.18889 -2.780873,-2.19317 -1.116732,-0.003 -1.944632,0.41619 -2.616412,1.32528 l -0.128269,0.17358 -0.0018,-2.73388 -0.0018,-2.73389 h -1.359708 -1.359708 v 6.42245 6.42245 h 1.359708 1.359708 z m 21.234594,-3.85053 v -6.42245 h -1.359708 -1.359709 v 6.42245 6.42245 h 1.359709 1.359708 z m 23.85205,4.27144 0.01517,-2.15101 1.382893,2.15101 1.382893,2.15101 h 1.614772 c 1.095537,0 1.602905,-0.0192 1.577858,-0.0597 -0.0203,-0.0328 -0.764249,-1.06472 -1.653209,-2.29305 -1.039708,-1.43663 -1.598502,-2.25641 -1.566418,-2.29806 0.95768,-1.24308 3.018274,-3.97024 3.018274,-3.99464 0,-0.0184 -0.710549,-0.0335 -1.578997,-0.0335 h -1.579003 l -1.236548,1.92383 c -0.680103,1.05812 -1.271403,1.96197 -1.313999,2.00857 -0.06476,0.0708 -0.07745,-0.58564 -0.07745,-4.00679 v -4.09153 h -1.330778 -1.330778 v 6.42245 6.42245 h 1.330072 1.330078 z M 28.102956,107.466 c 0.566091,-0.27662 0.852745,-0.90028 0.704863,-1.53355 -0.05864,-0.25113 -0.129883,-0.36724 -0.369173,-0.60169 -0.342118,-0.3352 -0.601172,-0.43274 -1.14938,-0.43274 -0.685249,0 -1.151754,0.26104 -1.410077,0.78904 -0.131447,0.26867 -0.149352,0.36498 -0.122633,0.65963 0.09707,1.07055 1.285767,1.63759 2.3464,1.11931 z m 77.220754,13.8331 c -0.63963,-0.0934 -1.4061,-0.28491 -1.77562,-0.44365 l -0.27483,-0.11807 v -1.04121 -1.04123 l 0.18834,0.14366 c 0.3098,0.2363 0.98936,0.5538 1.53077,0.71521 0.39393,0.11745 0.67969,0.15829 1.26835,0.18129 0.87366,0.0341 1.4229,-0.0582 1.89942,-0.31943 0.76723,-0.42055 0.9937,-1.3984 0.49256,-2.12679 -0.25436,-0.3697 -0.7079,-0.66841 -1.87892,-1.23751 -1.38131,-0.67129 -2.04159,-1.08703 -2.5765,-1.6223 -0.68012,-0.68057 -0.92528,-1.26475 -0.92261,-2.1984 0.003,-0.93231 0.21146,-1.43909 0.8617,-2.09152 0.34336,-0.34452 0.54632,-0.4922 0.93367,-0.67932 0.91399,-0.44155 1.9396,-0.62437 3.17917,-0.5667 0.89699,0.0417 1.33946,0.10578 1.87626,0.27158 l 0.38028,0.11746 v 1.006 1.00599 l -0.31611,-0.19035 c -1.25624,-0.75646 -3.43111,-0.72745 -4.36484,0.0582 -0.36578,0.30779 -0.53966,0.87683 -0.41237,1.34954 0.15506,0.57583 0.57839,0.95826 1.61006,1.4545 1.7936,0.86273 2.43229,1.26634 3.08494,1.94947 0.66512,0.69616 0.91989,1.31277 0.91504,2.21454 -0.01,1.79573 -1.20008,2.91654 -3.43864,3.23763 -0.54688,0.0784 -1.62004,0.0649 -2.26012,-0.0286 z m 43.27923,0 c -0.63963,-0.0934 -1.4061,-0.28491 -1.77562,-0.44365 l -0.27483,-0.11807 v -1.03713 -1.03713 l 0.26071,0.17937 c 0.38589,0.26551 1.03783,0.5596 1.56187,0.70459 0.64338,0.178 2.14804,0.19172 2.63263,0.024 0.71294,-0.24674 1.08394,-0.63241 1.18347,-1.23028 0.0995,-0.59754 -0.15166,-1.12919 -0.7369,-1.56002 -0.18803,-0.13843 -0.86664,-0.51123 -1.50803,-0.82847 -1.40264,-0.69376 -1.96013,-1.04898 -2.49692,-1.59099 -0.6345,-0.64065 -0.89489,-1.27321 -0.89614,-2.17693 -0.001,-0.87186 0.25788,-1.48639 0.88927,-2.10918 0.89467,-0.8825 2.32413,-1.30669 4.11492,-1.22109 0.87223,0.0417 1.31739,0.1069 1.84733,0.27058 l 0.38028,0.11746 v 0.98611 c 0,0.54236 -0.0195,0.97724 -0.0434,0.96641 -0.0239,-0.0108 -0.20889,-0.10591 -0.41118,-0.21128 -1.00218,-0.522 -2.73739,-0.62008 -3.65104,-0.20636 -0.43935,0.19896 -0.66813,0.38718 -0.85203,0.70097 -0.12918,0.22043 -0.15758,0.33831 -0.15637,0.64897 0.003,0.82062 0.46808,1.2779 2.01244,1.97961 1.70533,0.77484 2.86406,1.67971 3.3391,2.60754 0.28025,0.54738 0.36916,1.5424 0.19691,2.20372 -0.28482,1.0935 -1.18242,1.89806 -2.49357,2.2351 -0.95768,0.24618 -2.07857,0.29864 -3.1229,0.14614 z m -35.31991,-6.15942 v -6.07574 h 3.26908 3.26909 v 0.83897 0.83896 h -2.25654 -2.25653 v 1.73579 1.7358 h 2.08295 2.08296 v 0.83897 0.83897 h -2.08296 -2.08295 v 1.79366 1.79366 h 2.40273 2.40274 l -0.016,0.85343 -0.016,0.85343 -3.39927,0.0149 -3.39927,0.0149 z m 8.96829,-0.004 v -6.07861 l 2.53137,0.0211 c 2.81277,0.0234 2.85956,0.0289 3.7175,0.43433 0.55315,0.26141 1.17792,0.86642 1.41415,1.36941 0.35095,0.74731 0.39439,1.73441 0.11322,2.57292 -0.33155,0.98874 -1.05132,1.67963 -2.14974,2.06344 l -0.37063,0.12951 0.26994,0.18572 c 0.36571,0.25162 0.82849,0.72256 1.20759,1.22891 0.28339,0.37852 2.63991,4.06298 2.63991,4.12755 0,0.0147 -0.52591,0.0197 -1.16869,0.0111 l -1.16868,-0.0157 -0.79443,-1.33077 c -1.34186,-2.24779 -1.515,-2.5177 -1.85075,-2.88519 -0.5037,-0.55132 -0.97947,-0.72996 -1.94618,-0.73073 l -0.41949,-5.7e-4 v 2.48797 2.48798 h -1.01254 -1.01255 v -6.07862 z m 4.67128,-0.71295 c 0.42117,-0.19453 0.82782,-0.59842 1.01142,-1.00453 0.0995,-0.2201 0.12525,-0.39146 0.12835,-0.85396 0.004,-0.66876 -0.0972,-0.96508 -0.45318,-1.32109 -0.45832,-0.45835 -0.8727,-0.55937 -2.29414,-0.55937 h -1.03864 v 1.97157 1.97158 l 1.14274,-0.0188 c 1.11819,-0.0184 1.15048,-0.0224 1.50345,-0.18542 z m 6.14852,0.71759 v -6.07662 h 1.04175 1.04174 l -0.0147,6.06082 -0.0147,6.06082 -1.02701,0.0158 -1.02702,0.0158 z m 5.07239,6.03538 c -0.0212,-0.0212 -0.0386,-2.75509 -0.0386,-6.07529 v -6.03671 h 3.26908 3.26909 v 0.83897 0.83896 H 142.38654 140.13 v 1.73579 1.7358 h 2.08296 2.08296 v 0.83897 0.83897 H 142.21296 140.13 v 1.79366 1.79366 h 2.40119 2.40119 v 0.8679 0.86789 h -3.37516 c -1.85634,0 -3.39253,-0.0173 -3.41374,-0.0386 z m -22.76634,-13.4901 c 0.0416,-0.0578 0.50262,-0.68273 1.02453,-1.38863 l 0.94892,-1.28347 h 0.91753 0.91754 l -1.20107,1.38473 -1.20107,1.38474 -0.74099,0.004 c -0.70575,0.004 -0.7374,-10e-4 -0.66539,-0.10127 z m -10.05346,-7.21631 c -0.63963,-0.0934 -1.4061,-0.2849 -1.77562,-0.44364 l -0.27483,-0.117828 v -1.04122 -1.04122 l 0.18834,0.14365 c 0.3098,0.2363 0.98936,0.55381 1.53077,0.71522 0.39393,0.11744 0.67969,0.15829 1.26835,0.18129 0.87366,0.0341 1.4229,-0.0582 1.89942,-0.31943 0.76723,-0.42055 0.9937,-1.39841 0.49256,-2.12679 -0.25436,-0.36971 -0.7079,-0.66842 -1.87892,-1.23751 -1.38131,-0.67129 -2.04159,-1.08704 -2.5765,-1.62231 -0.68012,-0.68057 -0.92528,-1.26474 -0.92261,-2.19839 0.003,-0.93232 0.21146,-1.43909 0.8617,-2.09154 0.34336,-0.34452 0.54632,-0.49219 0.93367,-0.67932 0.91399,-0.44155 1.9396,-0.62437 3.17917,-0.56669 0.89699,0.0417 1.33946,0.10577 1.87626,0.27158 l 0.38028,0.11745 v 1.006 1.00601 l -0.31611,-0.19035 c -1.25624,-0.75647 -3.43111,-0.72746 -4.36484,0.0582 -0.36578,0.30779 -0.53966,0.87683 -0.41237,1.34955 0.15515,0.57618 0.60232,0.97956 1.62172,1.46293 1.72104,0.81606 2.42063,1.2579 3.07328,1.94103 0.66512,0.69617 0.91989,1.31277 0.91504,2.21454 -0.01,1.79573 -1.20008,2.916548 -3.43864,3.237628 -0.54688,0.0784 -1.62004,0.0649 -2.26012,-0.0286 z m 11.77807,4.1e-4 c -3.06244,-0.551468 -4.88091,-3.243998 -4.57649,-6.776238 0.21218,-2.462 1.3014,-4.20547 3.192,-5.10931 1.38007,-0.65977 3.31969,-0.75872 4.79953,-0.24484 1.64369,0.57078 2.89882,1.97173 3.38112,3.77394 0.38134,1.42492 0.33269,3.24853 -0.12303,4.61194 -0.68582,2.05181 -2.217,3.377868 -4.32291,3.743808 -0.6217,0.10803 -1.75233,0.10837 -2.35022,7e-4 z m 2.18533,-1.769368 c 1.22193,-0.29198 2.18541,-1.29311 2.55526,-2.65512 0.25558,-0.94119 0.2584,-2.50554 0.006,-3.49123 -0.31761,-1.24182 -1.10903,-2.17056 -2.19072,-2.57083 -0.51647,-0.19112 -1.58382,-0.24376 -2.16562,-0.10682 -1.29308,0.30436 -2.30584,1.38603 -2.71504,2.8998 -0.10707,0.39609 -0.12512,0.61732 -0.12512,1.53328 0,0.92217 0.0176,1.13452 0.12679,1.53329 0.45052,1.64476 1.50463,2.69932 2.92468,2.92592 0.3598,0.0574 1.21102,0.0207 1.58346,-0.0683 z m 11.09843,1.797658 c -1.80194,-0.28246 -3.19419,-1.247588 -4.02701,-2.791558 -1.10898,-2.05599 -0.958,-5.09998 0.34965,-7.04907 0.13624,-0.20306 0.48451,-0.60491 0.77395,-0.89299 1.10442,-1.09925 2.40616,-1.64985 4.11357,-1.73993 1.04848,-0.0553 2.38695,0.1245 3.07893,0.41363 l 0.19015,0.0795 v 0.98754 0.98755 l -0.30376,-0.15396 c -0.81817,-0.41469 -1.61494,-0.57118 -2.68918,-0.52818 -1.24226,0.0497 -2.06317,0.39852 -2.88118,1.22418 -0.52949,0.53445 -0.86406,1.11085 -1.0799,1.86047 -0.11584,0.40233 -0.13239,0.58938 -0.13276,1.50108 -5.8e-4,1.19584 0.0558,1.48239 0.44896,2.28547 0.34141,0.69736 0.97774,1.33646 1.66187,1.6691 0.27049,0.13152 0.63637,0.27568 0.81306,0.32035 1.12726,0.28499 2.62957,0.11097 3.7035,-0.42899 l 0.46227,-0.23242 -0.0159,0.94159 -0.0159,0.9416 -0.52074,0.194758 c -0.85168,0.31853 -1.43322,0.41849 -2.57476,0.4426 -0.55691,0.0118 -1.16657,-0.003 -1.35481,-0.0323 z m 59.82226,-0.006 c -0.55026,-0.07 -1.53335,-0.31078 -1.88305,-0.46122 l -0.28669,-0.123328 v -1.02872 -1.02872 l 0.3837,0.25202 c 0.73632,0.48362 1.80687,0.77819 2.82812,0.77819 1.08089,0 1.82479,-0.27119 2.19583,-0.80051 0.15509,-0.22125 0.1782,-0.30724 0.19588,-0.72907 0.0165,-0.39498 -7e-4,-0.51888 -0.099,-0.71163 -0.24929,-0.48865 -0.8142,-0.89937 -1.97544,-1.43627 -1.17268,-0.54219 -2.04113,-1.0862 -2.58083,-1.6167 -0.70517,-0.69315 -0.96582,-1.30507 -0.95991,-2.25363 0.005,-0.85095 0.24469,-1.43914 0.83269,-2.04587 0.64296,-0.66345 1.58448,-1.06941 2.84951,-1.22864 0.97555,-0.12279 2.4799,-4e-4 3.28588,0.26728 l 0.27608,0.0917 v 1.00368 1.00368 l -0.31336,-0.1887 c -1.03479,-0.62312 -2.91005,-0.7332 -3.93561,-0.23103 -0.39831,0.19503 -0.76,0.58423 -0.84903,0.9136 -0.0353,0.1308 -0.0502,0.37574 -0.0329,0.54431 0.0683,0.66699 0.52594,1.10534 1.775,1.7003 1.58918,0.75698 2.19839,1.13825 2.84204,1.77865 0.79267,0.78866 1.07528,1.48036 1.01832,2.49236 -0.0795,1.41275 -0.84476,2.33085 -2.356,2.826608 -0.80642,0.26453 -2.17604,0.36335 -3.21123,0.23167 z m -53.02862,-6.181378 v -6.07663 h 1.04174 1.04175 l -0.0147,6.06083 -0.0147,6.060828 -1.02702,0.0158 -1.02701,0.0158 z m 3.71757,6.001628 c 0.0148,-0.0398 1.03949,-2.773658 2.27709,-6.075288 l 2.25017,-6.00297 h 1.13868 1.13868 l 0.1135,0.30377 c 1.76579,4.72571 4.31747,11.619318 4.33742,11.717938 l 0.0266,0.13148 -1.08351,-0.0158 -1.08351,-0.0158 -0.12838,-0.34716 c -0.0706,-0.190938 -0.3184,-0.887428 -0.55067,-1.547748 l -0.42228,-1.2006 h -2.38747 -2.38746 l -0.40351,1.17167 c -0.22193,0.64441 -0.46136,1.34741 -0.53208,1.56221 l -0.12857,0.390558 h -1.1008 c -0.85644,0 -1.09484,-0.0161 -1.0739,-0.0723 z m 7.44939,-4.726108 c 0,-0.0297 -0.37919,-1.14275 -0.84265,-2.47352 -0.46346,-1.33077 -0.8763,-2.5758 -0.91743,-2.76674 -0.0686,-0.31831 -0.078,-0.33273 -0.11415,-0.17358 -0.0635,0.27968 -0.6718,2.13013 -1.26971,3.86215 l -0.55425,1.60561 h 1.8491 c 1.1043,0 1.84909,-0.0217 1.84909,-0.0539 z m 5.55456,-1.27685 v -6.0753 h 1.01255 1.01255 v 5.2074 5.20739 h 2.34332 2.34333 v 0.8679 0.867898 h -3.35588 -3.35587 z m 13.24992,0 v -6.0753 l 2.24207,1.8e-4 c 2.42349,1.7e-4 2.92754,0.0373 3.92896,0.28947 1.4857,0.37409 2.61783,1.155 3.25209,2.2432 0.60619,1.04004 0.90433,2.62061 0.76098,4.03427 -0.1591,1.56901 -0.62437,2.60733 -1.62083,3.61718 -0.75137,0.76146 -1.44111,1.19375 -2.43167,1.52402 -1.04747,0.349238 -1.96203,0.442168 -4.35241,0.442228 l -1.77919,4e-5 z m 4.62572,4.27809 c 2.33664,-0.37911 3.58625,-2.10365 3.45631,-4.7699 -0.0962,-1.9731 -0.95189,-3.17381 -2.61427,-3.66822 -0.56188,-0.16711 -1.276,-0.2363 -2.44458,-0.23686 l -0.99808,-4.7e-4 v 4.36843 4.36842 l 1.1138,-4.6e-4 c 0.61259,-2.3e-4 1.28166,-0.0277 1.48682,-0.061 z m 7.81417,-4.27809 v -6.0753 h 3.26908 3.26909 v 0.83897 0.83897 h -2.25654 -2.25654 v 1.7358 1.7358 h 2.08296 2.08296 v 0.83897 0.83896 h -2.08296 -2.08296 v 1.79366 1.79366 h 2.40119 2.40119 v 0.8679 0.867898 h -3.41374 -3.41373 z M 147.3336,79.636932 c -0.62559,-0.0971 -1.2692,-0.25686 -1.72134,-0.42732 l -0.33269,-0.12543 v -1.04074 c 0,-0.81679 0.0156,-1.03154 0.0723,-0.99802 0.0398,0.0235 0.15231,0.10268 0.25006,0.17599 0.27254,0.20438 0.98954,0.51813 1.50194,0.65722 0.29512,0.0801 0.71316,0.13636 1.16113,0.15625 1.17434,0.0521 1.84206,-0.1274 2.30181,-0.61891 0.40876,-0.437 0.50235,-1.04456 0.24577,-1.59557 -0.22634,-0.48606 -0.61397,-0.76979 -1.97465,-1.44537 -1.45119,-0.72052 -2.15403,-1.16315 -2.65625,-1.67284 -0.65323,-0.66295 -0.96091,-1.51111 -0.88215,-2.43176 0.11038,-1.29023 0.92775,-2.24108 2.35228,-2.73639 0.80232,-0.27897 1.19338,-0.33249 2.37225,-0.32467 1.10723,0.007 1.65416,0.0794 2.22761,0.29344 l 0.2893,0.10799 0.0159,0.9674 c 0.009,0.53207 -0.005,0.9674 -0.0308,0.9674 -0.0257,0 -0.21913,-0.0916 -0.42989,-0.20348 -0.64337,-0.34164 -1.1574,-0.44921 -2.15885,-0.45181 -0.73359,-0.002 -0.9251,0.0167 -1.23757,0.12045 -0.4643,0.1541 -0.85309,0.41693 -1.07649,0.72772 -0.1461,0.20324 -0.1764,0.30599 -0.19419,0.65826 -0.0436,0.86338 0.30126,1.21843 1.98751,2.04628 1.80074,0.88406 2.59477,1.45511 3.1176,2.24209 0.39278,0.59123 0.51797,1.01582 0.51477,1.74583 -0.004,0.97832 -0.26345,1.59105 -0.93543,2.21154 -0.39257,0.36249 -0.74385,0.56138 -1.35161,0.76528 -0.91892,0.3083 -2.31642,0.40172 -3.42828,0.22917 z m 31.81379,0.01 c -1.41988,-0.26985 -2.3493,-0.92041 -2.88122,-2.01675 -0.14245,-0.29361 -0.31733,-0.75515 -0.38861,-1.02564 -0.1278,-0.48495 -0.12988,-0.5526 -0.14904,-4.84578 l -0.0194,-4.35396 h 0.98091 0.98091 l 0.0262,3.94894 c 0.0291,4.39061 0.0322,4.42997 0.42129,5.23214 0.11078,0.22842 0.31875,0.53603 0.46216,0.68358 0.92172,0.94838 2.94722,0.93977 3.79025,-0.0161 0.30392,-0.3446 0.4919,-0.7141 0.64935,-1.27634 0.12042,-0.43003 0.1246,-0.56073 0.14407,-4.50753 l 0.0201,-4.06466 h 1.01314 1.01312 l -0.0242,4.12252 c -0.0267,4.55252 -0.0294,4.59057 -0.40552,5.58992 -0.47948,1.27416 -1.42256,2.0911 -2.81806,2.44112 -0.63375,0.15897 -2.18774,0.20785 -2.81537,0.0886 z m -75.31482,-0.13011 c -0.0212,-0.0212 -0.0386,-2.7551 -0.0386,-6.0753 v -6.03672 h 1.01255 1.01255 v 5.2074 5.20739 h 2.37226 2.37226 v 0.8679 0.8679 h -3.34623 c -1.84044,0 -3.3636,-0.0174 -3.38481,-0.0386 z m 8.46684,-6.03673 v -6.07529 h 3.26909 3.26908 v 0.83897 0.83897 h -2.25654 -2.25653 v 1.73578 1.7358 h 2.08295 2.08296 v 0.83896 0.83897 h -2.08296 -2.08295 v 1.79367 1.79365 h 2.40118 2.40119 v 0.8679 0.8679 h -3.41374 -3.41373 z m 13.77066,0.001 v -6.07665 h 2.3327 c 1.37381,0 2.47383,0.025 2.67602,0.0608 1.51331,0.26797 2.51015,1.07557 2.83402,2.29602 0.11868,0.44721 0.11679,1.34743 -0.004,1.81511 -0.27394,1.06229 -1.0799,1.89225 -2.20661,2.27232 l -0.38891,0.13119 0.25684,0.17768 c 0.3103,0.21468 0.98926,0.91553 1.29057,1.33222 0.12059,0.16675 0.75133,1.14315 1.40166,2.16976 l 1.18241,1.86656 -1.11289,0.0158 c -0.61208,0.009 -1.14401,0.004 -1.18207,-0.0108 -0.0381,-0.0146 -0.55718,-0.84186 -1.15361,-1.83835 -1.4208,-2.37383 -1.61589,-2.62546 -2.26793,-2.92521 -0.24504,-0.11264 -0.43553,-0.14665 -0.96853,-0.1729 l -0.66349,-0.0327 -0.0151,2.48209 -0.0151,2.48208 -0.99808,0.0158 -0.99809,0.0158 z m 4.63574,-0.7035 c 0.45599,-0.21381 0.77116,-0.52063 0.9887,-0.96253 0.16894,-0.34315 0.18671,-0.4294 0.18656,-0.90507 0,-0.66255 -0.14283,-1.02042 -0.55394,-1.39005 -0.45381,-0.40801 -0.64792,-0.45403 -2.03137,-0.48161 l -1.20059,-0.0239 v 1.97664 1.97664 l 1.14273,-0.0188 c 1.09387,-0.018 1.15664,-0.0253 1.46791,-0.17128 z m 6.18407,0.7026 v -6.07575 h 3.26908 3.26909 v 0.83896 0.83897 h -2.28633 -2.28633 l 0.0153,1.72134 0.0153,1.72133 2.09742,0.0152 2.09742,0.0152 v 0.83825 0.83824 h -2.11189 -2.11188 v 1.79367 1.79365 h 2.43166 2.43167 l -0.016,0.85344 -0.016,0.85343 -3.39927,0.0149 -3.39927,0.0149 z m 18.39946,-4.6e-4 v -6.07529 h 3.26908 3.26909 v 0.83896 0.83897 h -2.25654 -2.25654 v 1.73575 1.7358 h 2.08296 2.08296 v 0.83896 0.83897 h -2.08296 -2.08296 v 1.79367 1.79365 h 2.40119 2.40119 v 0.8679 0.8679 h -3.41374 -3.41373 z m 7.82617,6.00297 c 0.0151,-0.0398 1.0378,-2.77366 2.27265,-6.0753 l 2.24519,-6.00296 h 1.14108 c 0.85959,0 1.14789,0.0178 1.16866,0.0723 0.58477,1.53384 4.44002,11.96344 4.44002,12.01158 0,0.0518 -0.27201,0.0653 -1.08234,0.0535 l -1.08234,-0.0157 -0.54595,-1.54775 -0.54595,-1.54775 h -2.3875 -2.38751 l -0.17105,0.47734 c -0.0941,0.26254 -0.33305,0.96554 -0.53102,1.56222 l -0.35996,1.08487 h -1.10072 c -0.85666,0 -1.09463,-0.016 -1.07326,-0.0723 z m 7.44885,-4.72315 c 0,-0.028 -0.37942,-1.1411 -0.84316,-2.47351 -0.46373,-1.33241 -0.87657,-2.57878 -0.91742,-2.76972 -0.0681,-0.31849 -0.0776,-0.33282 -0.11396,-0.17358 -0.0666,0.29127 -0.56766,1.81601 -1.2122,3.68857 l -0.6124,1.7792 h 1.84957 c 1.02732,0 1.84957,-0.0226 1.84957,-0.051 z m -31.60776,-8.70041 c 0.0307,-0.0398 0.49143,-0.66467 1.02388,-1.38864 l 0.9681,-1.31631 h 0.89599 c 0.70115,0 0.88664,0.0157 0.853,0.0723 -0.0236,0.0398 -0.56083,0.66466 -1.19376,1.38863 l -1.15077,1.31632 h -0.72611 c -0.57208,0 -0.71429,-0.0153 -0.67033,-0.0723 z"
       id="path4496"
       inkscape:connector-curvature="0" />
  </g>
</svg>
